<mxfile host="app.diagrams.net" modified="2021-05-02T06:16:37.972Z" agent="5.0 (Windows NT 10.0; Win64; x64) AppleWebKit/537.36 (KHTML, like Gecko) Chrome/90.0.4430.93 Safari/537.36" etag="1SdIW-7Pyc1VeOHb2r2I" version="14.4.3" type="github">
  <diagram id="N69nodTgbJ_y2lcc52ZP" name="Page-1">
    <mxGraphModel dx="1278" dy="1684" grid="1" gridSize="10" guides="1" tooltips="1" connect="1" arrows="1" fold="1" page="1" pageScale="1" pageWidth="850" pageHeight="1100" math="0" shadow="0">
      <root>
        <mxCell id="0" />
        <mxCell id="1" parent="0" />
        <mxCell id="DJfD9Ja-8CSdaUrpbYEk-60" style="edgeStyle=orthogonalEdgeStyle;rounded=0;orthogonalLoop=1;jettySize=auto;html=1;exitX=0.5;exitY=1;exitDx=0;exitDy=0;entryX=0.5;entryY=0;entryDx=0;entryDy=0;" edge="1" parent="1" source="DJfD9Ja-8CSdaUrpbYEk-1" target="DJfD9Ja-8CSdaUrpbYEk-2">
          <mxGeometry relative="1" as="geometry" />
        </mxCell>
        <UserObject label="Conv2D Layer      (64, 3x3 filters)         " lucidchartObjectId="~4PyKlQCXt-q" id="DJfD9Ja-8CSdaUrpbYEk-1">
          <mxCell style="html=1;overflow=block;blockSpacing=1;whiteSpace=wrap;rounded=1;arcSize=50;whiteSpace=wrap;fontSize=16.7;fontColor=#333333;spacing=3.8;strokeColor=#333333;strokeOpacity=100;fillOpacity=100;fillColor=#e5e5e5;strokeWidth=1.5;" vertex="1" parent="1">
            <mxGeometry x="135" y="135" width="165" height="60" as="geometry" />
          </mxCell>
        </UserObject>
        <mxCell id="DJfD9Ja-8CSdaUrpbYEk-64" style="edgeStyle=orthogonalEdgeStyle;rounded=0;orthogonalLoop=1;jettySize=auto;html=1;exitX=0.5;exitY=1;exitDx=0;exitDy=0;entryX=0.5;entryY=0;entryDx=0;entryDy=0;" edge="1" parent="1" source="DJfD9Ja-8CSdaUrpbYEk-2" target="DJfD9Ja-8CSdaUrpbYEk-6">
          <mxGeometry relative="1" as="geometry" />
        </mxCell>
        <UserObject label="Batch Normalization" lucidchartObjectId="~4PyqPf.J0bL" id="DJfD9Ja-8CSdaUrpbYEk-2">
          <mxCell style="html=1;overflow=block;blockSpacing=1;whiteSpace=wrap;rounded=1;arcSize=50;whiteSpace=wrap;fontSize=16.7;fontColor=#333333;spacing=3.8;strokeColor=#333333;strokeOpacity=100;fillOpacity=100;fillColor=#e5e5e5;strokeWidth=1.5;" vertex="1" parent="1">
            <mxGeometry x="135" y="218" width="165" height="38" as="geometry" />
          </mxCell>
        </UserObject>
        <mxCell id="DJfD9Ja-8CSdaUrpbYEk-67" style="edgeStyle=orthogonalEdgeStyle;rounded=0;orthogonalLoop=1;jettySize=auto;html=1;exitX=0.5;exitY=1;exitDx=0;exitDy=0;entryX=0.5;entryY=0;entryDx=0;entryDy=0;" edge="1" parent="1" source="DJfD9Ja-8CSdaUrpbYEk-3" target="DJfD9Ja-8CSdaUrpbYEk-4">
          <mxGeometry relative="1" as="geometry" />
        </mxCell>
        <UserObject label="Conv2D Layer      (64, 3x3 filters)         " lucidchartObjectId="~4PyAKuKR57I" id="DJfD9Ja-8CSdaUrpbYEk-3">
          <mxCell style="html=1;overflow=block;blockSpacing=1;whiteSpace=wrap;rounded=1;arcSize=50;whiteSpace=wrap;fontSize=16.7;fontColor=#333333;spacing=3.8;strokeColor=#333333;strokeOpacity=100;fillOpacity=100;fillColor=#e5e5e5;strokeWidth=1.5;" vertex="1" parent="1">
            <mxGeometry x="135" y="338" width="165" height="60" as="geometry" />
          </mxCell>
        </UserObject>
        <mxCell id="DJfD9Ja-8CSdaUrpbYEk-68" style="edgeStyle=orthogonalEdgeStyle;rounded=0;orthogonalLoop=1;jettySize=auto;html=1;exitX=0.5;exitY=1;exitDx=0;exitDy=0;entryX=0.5;entryY=0;entryDx=0;entryDy=0;" edge="1" parent="1" source="DJfD9Ja-8CSdaUrpbYEk-4" target="DJfD9Ja-8CSdaUrpbYEk-5">
          <mxGeometry relative="1" as="geometry" />
        </mxCell>
        <UserObject label="Batch Normalization" lucidchartObjectId="~4PyzyeaoNA0" id="DJfD9Ja-8CSdaUrpbYEk-4">
          <mxCell style="html=1;overflow=block;blockSpacing=1;whiteSpace=wrap;rounded=1;arcSize=50;whiteSpace=wrap;fontSize=16.7;fontColor=#333333;spacing=3.8;strokeColor=#333333;strokeOpacity=100;fillOpacity=100;fillColor=#e5e5e5;strokeWidth=1.5;" vertex="1" parent="1">
            <mxGeometry x="135" y="420" width="165" height="38" as="geometry" />
          </mxCell>
        </UserObject>
        <mxCell id="DJfD9Ja-8CSdaUrpbYEk-65" style="edgeStyle=orthogonalEdgeStyle;rounded=0;orthogonalLoop=1;jettySize=auto;html=1;exitX=0.5;exitY=1;exitDx=0;exitDy=0;" edge="1" parent="1" source="DJfD9Ja-8CSdaUrpbYEk-5">
          <mxGeometry relative="1" as="geometry">
            <mxPoint x="390" y="130" as="targetPoint" />
            <Array as="points">
              <mxPoint x="219" y="551" />
              <mxPoint x="310" y="551" />
              <mxPoint x="310" y="110" />
              <mxPoint x="390" y="110" />
            </Array>
          </mxGeometry>
        </mxCell>
        <UserObject label="MaxPooling      (pool size = 2x2)" lucidchartObjectId="~4PyM3jMeS1W" id="DJfD9Ja-8CSdaUrpbYEk-5">
          <mxCell style="html=1;overflow=block;blockSpacing=1;whiteSpace=wrap;rounded=1;arcSize=50;whiteSpace=wrap;fontSize=16.7;fontColor=#333333;spacing=3.8;strokeColor=#333333;strokeOpacity=100;fillOpacity=100;fillColor=#e5e5e5;strokeWidth=1.5;" vertex="1" parent="1">
            <mxGeometry x="136" y="480" width="165" height="51" as="geometry" />
          </mxCell>
        </UserObject>
        <mxCell id="DJfD9Ja-8CSdaUrpbYEk-66" style="edgeStyle=orthogonalEdgeStyle;rounded=0;orthogonalLoop=1;jettySize=auto;html=1;exitX=0.5;exitY=1;exitDx=0;exitDy=0;entryX=0.5;entryY=0;entryDx=0;entryDy=0;" edge="1" parent="1" source="DJfD9Ja-8CSdaUrpbYEk-6" target="DJfD9Ja-8CSdaUrpbYEk-3">
          <mxGeometry relative="1" as="geometry" />
        </mxCell>
        <UserObject label="Dropout Layer" lucidchartObjectId="~4Pyql6qKk3y" id="DJfD9Ja-8CSdaUrpbYEk-6">
          <mxCell style="html=1;overflow=block;blockSpacing=1;whiteSpace=wrap;rounded=1;arcSize=50;whiteSpace=wrap;fontSize=16.7;fontColor=#333333;spacing=3.8;strokeColor=#333333;strokeOpacity=100;fillOpacity=100;fillColor=#e5e5e5;strokeWidth=1.5;" vertex="1" parent="1">
            <mxGeometry x="136" y="278" width="165" height="38" as="geometry" />
          </mxCell>
        </UserObject>
        <mxCell id="DJfD9Ja-8CSdaUrpbYEk-69" style="edgeStyle=orthogonalEdgeStyle;rounded=0;orthogonalLoop=1;jettySize=auto;html=1;exitX=0.5;exitY=1;exitDx=0;exitDy=0;entryX=0.5;entryY=0;entryDx=0;entryDy=0;" edge="1" parent="1" source="DJfD9Ja-8CSdaUrpbYEk-7" target="DJfD9Ja-8CSdaUrpbYEk-8">
          <mxGeometry relative="1" as="geometry" />
        </mxCell>
        <UserObject label="Conv2D Layer      (128, 3x3 filters)         " lucidchartObjectId="m5PyXlGWp8mJ" id="DJfD9Ja-8CSdaUrpbYEk-7">
          <mxCell style="html=1;overflow=block;blockSpacing=1;whiteSpace=wrap;rounded=1;arcSize=50;whiteSpace=wrap;fontSize=16.7;fontColor=#333333;spacing=3.8;strokeColor=#333333;strokeOpacity=100;fillOpacity=100;fillColor=#e5e5e5;strokeWidth=1.5;" vertex="1" parent="1">
            <mxGeometry x="315" y="135" width="165" height="60" as="geometry" />
          </mxCell>
        </UserObject>
        <mxCell id="DJfD9Ja-8CSdaUrpbYEk-70" style="edgeStyle=orthogonalEdgeStyle;rounded=0;orthogonalLoop=1;jettySize=auto;html=1;exitX=0.5;exitY=1;exitDx=0;exitDy=0;entryX=0.5;entryY=0;entryDx=0;entryDy=0;" edge="1" parent="1" source="DJfD9Ja-8CSdaUrpbYEk-8" target="DJfD9Ja-8CSdaUrpbYEk-12">
          <mxGeometry relative="1" as="geometry" />
        </mxCell>
        <UserObject label="Batch Normalization" lucidchartObjectId="m5Py8WKvEygd" id="DJfD9Ja-8CSdaUrpbYEk-8">
          <mxCell style="html=1;overflow=block;blockSpacing=1;whiteSpace=wrap;rounded=1;arcSize=50;whiteSpace=wrap;fontSize=16.7;fontColor=#333333;spacing=3.8;strokeColor=#333333;strokeOpacity=100;fillOpacity=100;fillColor=#e5e5e5;strokeWidth=1.5;" vertex="1" parent="1">
            <mxGeometry x="315" y="218" width="165" height="38" as="geometry" />
          </mxCell>
        </UserObject>
        <mxCell id="DJfD9Ja-8CSdaUrpbYEk-72" style="edgeStyle=orthogonalEdgeStyle;rounded=0;orthogonalLoop=1;jettySize=auto;html=1;exitX=0.5;exitY=1;exitDx=0;exitDy=0;entryX=0.5;entryY=0;entryDx=0;entryDy=0;" edge="1" parent="1" source="DJfD9Ja-8CSdaUrpbYEk-9" target="DJfD9Ja-8CSdaUrpbYEk-10">
          <mxGeometry relative="1" as="geometry" />
        </mxCell>
        <UserObject label="Conv2D Layer      (128, 3x3 filters)         " lucidchartObjectId="m5PyTUAXMyqm" id="DJfD9Ja-8CSdaUrpbYEk-9">
          <mxCell style="html=1;overflow=block;blockSpacing=1;whiteSpace=wrap;rounded=1;arcSize=50;whiteSpace=wrap;fontSize=16.7;fontColor=#333333;spacing=3.8;strokeColor=#333333;strokeOpacity=100;fillOpacity=100;fillColor=#e5e5e5;strokeWidth=1.5;" vertex="1" parent="1">
            <mxGeometry x="315" y="338" width="165" height="60" as="geometry" />
          </mxCell>
        </UserObject>
        <mxCell id="DJfD9Ja-8CSdaUrpbYEk-73" style="edgeStyle=orthogonalEdgeStyle;rounded=0;orthogonalLoop=1;jettySize=auto;html=1;exitX=0.5;exitY=1;exitDx=0;exitDy=0;entryX=0.5;entryY=0;entryDx=0;entryDy=0;" edge="1" parent="1" source="DJfD9Ja-8CSdaUrpbYEk-10" target="DJfD9Ja-8CSdaUrpbYEk-11">
          <mxGeometry relative="1" as="geometry" />
        </mxCell>
        <UserObject label="Batch Normalization" lucidchartObjectId="m5PyZV~lbY5c" id="DJfD9Ja-8CSdaUrpbYEk-10">
          <mxCell style="html=1;overflow=block;blockSpacing=1;whiteSpace=wrap;rounded=1;arcSize=50;whiteSpace=wrap;fontSize=16.7;fontColor=#333333;spacing=3.8;strokeColor=#333333;strokeOpacity=100;fillOpacity=100;fillColor=#e5e5e5;strokeWidth=1.5;" vertex="1" parent="1">
            <mxGeometry x="315" y="420" width="165" height="38" as="geometry" />
          </mxCell>
        </UserObject>
        <mxCell id="DJfD9Ja-8CSdaUrpbYEk-97" style="edgeStyle=orthogonalEdgeStyle;rounded=0;orthogonalLoop=1;jettySize=auto;html=1;exitX=0.5;exitY=1;exitDx=0;exitDy=0;entryX=0.5;entryY=0;entryDx=0;entryDy=0;" edge="1" parent="1" source="DJfD9Ja-8CSdaUrpbYEk-11" target="DJfD9Ja-8CSdaUrpbYEk-13">
          <mxGeometry relative="1" as="geometry">
            <Array as="points">
              <mxPoint x="398" y="559" />
              <mxPoint x="490" y="559" />
              <mxPoint x="490" y="-5" />
              <mxPoint x="578" y="-5" />
            </Array>
          </mxGeometry>
        </mxCell>
        <UserObject label="MaxPooling      (pool size = 2x2)" lucidchartObjectId="m5PywDav7v7n" id="DJfD9Ja-8CSdaUrpbYEk-11">
          <mxCell style="html=1;overflow=block;blockSpacing=1;whiteSpace=wrap;rounded=1;arcSize=50;whiteSpace=wrap;fontSize=16.7;fontColor=#333333;spacing=3.8;strokeColor=#333333;strokeOpacity=100;fillOpacity=100;fillColor=#e5e5e5;strokeWidth=1.5;" vertex="1" parent="1">
            <mxGeometry x="315" y="488" width="165" height="51" as="geometry" />
          </mxCell>
        </UserObject>
        <mxCell id="DJfD9Ja-8CSdaUrpbYEk-71" style="edgeStyle=orthogonalEdgeStyle;rounded=0;orthogonalLoop=1;jettySize=auto;html=1;exitX=0.5;exitY=1;exitDx=0;exitDy=0;entryX=0.5;entryY=0;entryDx=0;entryDy=0;" edge="1" parent="1" source="DJfD9Ja-8CSdaUrpbYEk-12" target="DJfD9Ja-8CSdaUrpbYEk-9">
          <mxGeometry relative="1" as="geometry" />
        </mxCell>
        <UserObject label="Dropout Layer" lucidchartObjectId="m5PyluI1yRXE" id="DJfD9Ja-8CSdaUrpbYEk-12">
          <mxCell style="html=1;overflow=block;blockSpacing=1;whiteSpace=wrap;rounded=1;arcSize=50;whiteSpace=wrap;fontSize=16.7;fontColor=#333333;spacing=3.8;strokeColor=#333333;strokeOpacity=100;fillOpacity=100;fillColor=#e5e5e5;strokeWidth=1.5;" vertex="1" parent="1">
            <mxGeometry x="315" y="278" width="165" height="38" as="geometry" />
          </mxCell>
        </UserObject>
        <mxCell id="DJfD9Ja-8CSdaUrpbYEk-74" style="edgeStyle=orthogonalEdgeStyle;rounded=0;orthogonalLoop=1;jettySize=auto;html=1;exitX=0.5;exitY=1;exitDx=0;exitDy=0;entryX=0.5;entryY=0;entryDx=0;entryDy=0;" edge="1" parent="1" source="DJfD9Ja-8CSdaUrpbYEk-13" target="DJfD9Ja-8CSdaUrpbYEk-14">
          <mxGeometry relative="1" as="geometry" />
        </mxCell>
        <UserObject label="Conv2D Layer      (256, 3x3 filters)         " lucidchartObjectId="-5PykQrndoN7" id="DJfD9Ja-8CSdaUrpbYEk-13">
          <mxCell style="html=1;overflow=block;blockSpacing=1;whiteSpace=wrap;rounded=1;arcSize=50;whiteSpace=wrap;fontSize=16.7;fontColor=#333333;spacing=3.8;strokeColor=#333333;strokeOpacity=100;fillOpacity=100;fillColor=#e5e5e5;strokeWidth=1.5;" vertex="1" parent="1">
            <mxGeometry x="495" y="15" width="165" height="60" as="geometry" />
          </mxCell>
        </UserObject>
        <mxCell id="DJfD9Ja-8CSdaUrpbYEk-75" style="edgeStyle=orthogonalEdgeStyle;rounded=0;orthogonalLoop=1;jettySize=auto;html=1;exitX=0.5;exitY=1;exitDx=0;exitDy=0;entryX=0.5;entryY=0;entryDx=0;entryDy=0;" edge="1" parent="1" source="DJfD9Ja-8CSdaUrpbYEk-14" target="DJfD9Ja-8CSdaUrpbYEk-18">
          <mxGeometry relative="1" as="geometry" />
        </mxCell>
        <UserObject label="Batch Normalization" lucidchartObjectId="-5Pyy6Q3aqns" id="DJfD9Ja-8CSdaUrpbYEk-14">
          <mxCell style="html=1;overflow=block;blockSpacing=1;whiteSpace=wrap;rounded=1;arcSize=50;whiteSpace=wrap;fontSize=16.7;fontColor=#333333;spacing=3.8;strokeColor=#333333;strokeOpacity=100;fillOpacity=100;fillColor=#e5e5e5;strokeWidth=1.5;" vertex="1" parent="1">
            <mxGeometry x="495" y="98" width="165" height="38" as="geometry" />
          </mxCell>
        </UserObject>
        <mxCell id="DJfD9Ja-8CSdaUrpbYEk-77" style="edgeStyle=orthogonalEdgeStyle;rounded=0;orthogonalLoop=1;jettySize=auto;html=1;exitX=0.5;exitY=1;exitDx=0;exitDy=0;entryX=0.5;entryY=0;entryDx=0;entryDy=0;" edge="1" parent="1" source="DJfD9Ja-8CSdaUrpbYEk-15" target="DJfD9Ja-8CSdaUrpbYEk-16">
          <mxGeometry relative="1" as="geometry" />
        </mxCell>
        <UserObject label="Conv2D Layer      (256, 3x3 filters)         " lucidchartObjectId="-5PyzjLJewwP" id="DJfD9Ja-8CSdaUrpbYEk-15">
          <mxCell style="html=1;overflow=block;blockSpacing=1;whiteSpace=wrap;rounded=1;arcSize=50;whiteSpace=wrap;fontSize=16.7;fontColor=#333333;spacing=3.8;strokeColor=#333333;strokeOpacity=100;fillOpacity=100;fillColor=#e5e5e5;strokeWidth=1.5;" vertex="1" parent="1">
            <mxGeometry x="495" y="218" width="165" height="60" as="geometry" />
          </mxCell>
        </UserObject>
        <mxCell id="DJfD9Ja-8CSdaUrpbYEk-78" style="edgeStyle=orthogonalEdgeStyle;rounded=0;orthogonalLoop=1;jettySize=auto;html=1;exitX=0.5;exitY=1;exitDx=0;exitDy=0;entryX=0.5;entryY=0;entryDx=0;entryDy=0;" edge="1" parent="1" source="DJfD9Ja-8CSdaUrpbYEk-16" target="DJfD9Ja-8CSdaUrpbYEk-19">
          <mxGeometry relative="1" as="geometry" />
        </mxCell>
        <UserObject label="Batch Normalization" lucidchartObjectId="-5PyuCS3xRi8" id="DJfD9Ja-8CSdaUrpbYEk-16">
          <mxCell style="html=1;overflow=block;blockSpacing=1;whiteSpace=wrap;rounded=1;arcSize=50;whiteSpace=wrap;fontSize=16.7;fontColor=#333333;spacing=3.8;strokeColor=#333333;strokeOpacity=100;fillOpacity=100;fillColor=#e5e5e5;strokeWidth=1.5;" vertex="1" parent="1">
            <mxGeometry x="495" y="300" width="165" height="38" as="geometry" />
          </mxCell>
        </UserObject>
        <mxCell id="DJfD9Ja-8CSdaUrpbYEk-98" style="edgeStyle=orthogonalEdgeStyle;rounded=0;orthogonalLoop=1;jettySize=auto;html=1;exitX=0.5;exitY=1;exitDx=0;exitDy=0;" edge="1" parent="1" source="DJfD9Ja-8CSdaUrpbYEk-17">
          <mxGeometry relative="1" as="geometry">
            <mxPoint x="750" y="10" as="targetPoint" />
            <Array as="points">
              <mxPoint x="582" y="640" />
              <mxPoint x="670" y="640" />
              <mxPoint x="670" y="-10" />
              <mxPoint x="750" y="-10" />
            </Array>
          </mxGeometry>
        </mxCell>
        <UserObject label="MaxPooling      (pool size = 2x2)" lucidchartObjectId="-5Py5rm~ig~E" id="DJfD9Ja-8CSdaUrpbYEk-17">
          <mxCell style="html=1;overflow=block;blockSpacing=1;whiteSpace=wrap;rounded=1;arcSize=50;whiteSpace=wrap;fontSize=16.7;fontColor=#333333;spacing=3.8;strokeColor=#333333;strokeOpacity=100;fillOpacity=100;fillColor=#e5e5e5;strokeWidth=1.5;" vertex="1" parent="1">
            <mxGeometry x="499" y="560" width="165" height="60" as="geometry" />
          </mxCell>
        </UserObject>
        <mxCell id="DJfD9Ja-8CSdaUrpbYEk-76" style="edgeStyle=orthogonalEdgeStyle;rounded=0;orthogonalLoop=1;jettySize=auto;html=1;exitX=0.5;exitY=1;exitDx=0;exitDy=0;entryX=0.5;entryY=0;entryDx=0;entryDy=0;" edge="1" parent="1" source="DJfD9Ja-8CSdaUrpbYEk-18" target="DJfD9Ja-8CSdaUrpbYEk-15">
          <mxGeometry relative="1" as="geometry" />
        </mxCell>
        <UserObject label="Dropout Layer" lucidchartObjectId="-5Py0XA3DC6Q" id="DJfD9Ja-8CSdaUrpbYEk-18">
          <mxCell style="html=1;overflow=block;blockSpacing=1;whiteSpace=wrap;rounded=1;arcSize=50;whiteSpace=wrap;fontSize=16.7;fontColor=#333333;spacing=3.8;strokeColor=#333333;strokeOpacity=100;fillOpacity=100;fillColor=#e5e5e5;strokeWidth=1.5;" vertex="1" parent="1">
            <mxGeometry x="495" y="158" width="165" height="38" as="geometry" />
          </mxCell>
        </UserObject>
        <mxCell id="DJfD9Ja-8CSdaUrpbYEk-79" style="edgeStyle=orthogonalEdgeStyle;rounded=0;orthogonalLoop=1;jettySize=auto;html=1;exitX=0.5;exitY=1;exitDx=0;exitDy=0;entryX=0.5;entryY=0;entryDx=0;entryDy=0;" edge="1" parent="1" source="DJfD9Ja-8CSdaUrpbYEk-19" target="DJfD9Ja-8CSdaUrpbYEk-20">
          <mxGeometry relative="1" as="geometry" />
        </mxCell>
        <UserObject label="Dropout Layer" lucidchartObjectId="-5PyijjSBZWQ" id="DJfD9Ja-8CSdaUrpbYEk-19">
          <mxCell style="html=1;overflow=block;blockSpacing=1;whiteSpace=wrap;rounded=1;arcSize=50;whiteSpace=wrap;fontSize=16.7;fontColor=#333333;spacing=3.8;strokeColor=#333333;strokeOpacity=100;fillOpacity=100;fillColor=#e5e5e5;strokeWidth=1.5;" vertex="1" parent="1">
            <mxGeometry x="495" y="359" width="165" height="38" as="geometry" />
          </mxCell>
        </UserObject>
        <mxCell id="DJfD9Ja-8CSdaUrpbYEk-80" style="edgeStyle=orthogonalEdgeStyle;rounded=0;orthogonalLoop=1;jettySize=auto;html=1;exitX=0.5;exitY=1;exitDx=0;exitDy=0;" edge="1" parent="1" source="DJfD9Ja-8CSdaUrpbYEk-20">
          <mxGeometry relative="1" as="geometry">
            <mxPoint x="578" y="500" as="targetPoint" />
          </mxGeometry>
        </mxCell>
        <UserObject label="Conv2D Layer      (256, 3x3 filters)         " lucidchartObjectId="-5PyetL1f2k8" id="DJfD9Ja-8CSdaUrpbYEk-20">
          <mxCell style="html=1;overflow=block;blockSpacing=1;whiteSpace=wrap;rounded=1;arcSize=50;whiteSpace=wrap;fontSize=16.7;fontColor=#333333;spacing=3.8;strokeColor=#333333;strokeOpacity=100;fillOpacity=100;fillColor=#e5e5e5;strokeWidth=1.5;" vertex="1" parent="1">
            <mxGeometry x="495" y="419" width="165" height="60" as="geometry" />
          </mxCell>
        </UserObject>
        <mxCell id="DJfD9Ja-8CSdaUrpbYEk-81" style="edgeStyle=orthogonalEdgeStyle;rounded=0;orthogonalLoop=1;jettySize=auto;html=1;exitX=0.5;exitY=1;exitDx=0;exitDy=0;entryX=0.5;entryY=0;entryDx=0;entryDy=0;" edge="1" parent="1" source="DJfD9Ja-8CSdaUrpbYEk-21" target="DJfD9Ja-8CSdaUrpbYEk-17">
          <mxGeometry relative="1" as="geometry" />
        </mxCell>
        <UserObject label="Batch Normalization" lucidchartObjectId="-5Py3piN6-un" id="DJfD9Ja-8CSdaUrpbYEk-21">
          <mxCell style="html=1;overflow=block;blockSpacing=1;whiteSpace=wrap;rounded=1;arcSize=50;whiteSpace=wrap;fontSize=16.7;fontColor=#333333;spacing=3.8;strokeColor=#333333;strokeOpacity=100;fillOpacity=100;fillColor=#e5e5e5;strokeWidth=1.5;" vertex="1" parent="1">
            <mxGeometry x="499" y="501" width="165" height="38" as="geometry" />
          </mxCell>
        </UserObject>
        <UserObject label="Conv2D Layer      (512, 3x3 filters)         " lucidchartObjectId="B6PyI6CBR1lK" id="DJfD9Ja-8CSdaUrpbYEk-22">
          <mxCell style="html=1;overflow=block;blockSpacing=1;whiteSpace=wrap;rounded=1;arcSize=50;whiteSpace=wrap;fontSize=16.7;fontColor=#333333;spacing=3.8;strokeColor=#333333;strokeOpacity=100;fillOpacity=100;fillColor=#e5e5e5;strokeWidth=1.5;" vertex="1" parent="1">
            <mxGeometry x="675" y="15" width="165" height="60" as="geometry" />
          </mxCell>
        </UserObject>
        <mxCell id="DJfD9Ja-8CSdaUrpbYEk-82" style="edgeStyle=orthogonalEdgeStyle;rounded=0;orthogonalLoop=1;jettySize=auto;html=1;exitX=0.5;exitY=1;exitDx=0;exitDy=0;entryX=0.5;entryY=0;entryDx=0;entryDy=0;" edge="1" parent="1" source="DJfD9Ja-8CSdaUrpbYEk-23" target="DJfD9Ja-8CSdaUrpbYEk-27">
          <mxGeometry relative="1" as="geometry" />
        </mxCell>
        <UserObject label="Batch Normalization" lucidchartObjectId="B6PyHj2BCP3U" id="DJfD9Ja-8CSdaUrpbYEk-23">
          <mxCell style="html=1;overflow=block;blockSpacing=1;whiteSpace=wrap;rounded=1;arcSize=50;whiteSpace=wrap;fontSize=16.7;fontColor=#333333;spacing=3.8;strokeColor=#333333;strokeOpacity=100;fillOpacity=100;fillColor=#e5e5e5;strokeWidth=1.5;" vertex="1" parent="1">
            <mxGeometry x="675" y="98" width="165" height="38" as="geometry" />
          </mxCell>
        </UserObject>
        <mxCell id="DJfD9Ja-8CSdaUrpbYEk-84" style="edgeStyle=orthogonalEdgeStyle;rounded=0;orthogonalLoop=1;jettySize=auto;html=1;exitX=0.5;exitY=1;exitDx=0;exitDy=0;entryX=0.5;entryY=0;entryDx=0;entryDy=0;" edge="1" parent="1" source="DJfD9Ja-8CSdaUrpbYEk-24" target="DJfD9Ja-8CSdaUrpbYEk-25">
          <mxGeometry relative="1" as="geometry" />
        </mxCell>
        <UserObject label="Conv2D Layer      (512, 3x3 filters)         " lucidchartObjectId="B6PysOwoispX" id="DJfD9Ja-8CSdaUrpbYEk-24">
          <mxCell style="html=1;overflow=block;blockSpacing=1;whiteSpace=wrap;rounded=1;arcSize=50;whiteSpace=wrap;fontSize=16.7;fontColor=#333333;spacing=3.8;strokeColor=#333333;strokeOpacity=100;fillOpacity=100;fillColor=#e5e5e5;strokeWidth=1.5;" vertex="1" parent="1">
            <mxGeometry x="675" y="218" width="165" height="60" as="geometry" />
          </mxCell>
        </UserObject>
        <mxCell id="DJfD9Ja-8CSdaUrpbYEk-85" style="edgeStyle=orthogonalEdgeStyle;rounded=0;orthogonalLoop=1;jettySize=auto;html=1;exitX=0.5;exitY=1;exitDx=0;exitDy=0;entryX=0.5;entryY=0;entryDx=0;entryDy=0;" edge="1" parent="1" source="DJfD9Ja-8CSdaUrpbYEk-25" target="DJfD9Ja-8CSdaUrpbYEk-28">
          <mxGeometry relative="1" as="geometry" />
        </mxCell>
        <UserObject label="Batch Normalization" lucidchartObjectId="B6PyFdhAwwAR" id="DJfD9Ja-8CSdaUrpbYEk-25">
          <mxCell style="html=1;overflow=block;blockSpacing=1;whiteSpace=wrap;rounded=1;arcSize=50;whiteSpace=wrap;fontSize=16.7;fontColor=#333333;spacing=3.8;strokeColor=#333333;strokeOpacity=100;fillOpacity=100;fillColor=#e5e5e5;strokeWidth=1.5;" vertex="1" parent="1">
            <mxGeometry x="675" y="300" width="165" height="38" as="geometry" />
          </mxCell>
        </UserObject>
        <mxCell id="DJfD9Ja-8CSdaUrpbYEk-99" style="edgeStyle=orthogonalEdgeStyle;rounded=0;orthogonalLoop=1;jettySize=auto;html=1;exitX=0.5;exitY=1;exitDx=0;exitDy=0;entryX=0.5;entryY=0;entryDx=0;entryDy=0;" edge="1" parent="1" source="DJfD9Ja-8CSdaUrpbYEk-26" target="DJfD9Ja-8CSdaUrpbYEk-36">
          <mxGeometry relative="1" as="geometry">
            <Array as="points">
              <mxPoint x="758" y="641" />
              <mxPoint x="850" y="641" />
              <mxPoint x="850" y="-20" />
              <mxPoint x="938" y="-20" />
            </Array>
          </mxGeometry>
        </mxCell>
        <UserObject label="MaxPooling      (pool size = 2x2)" lucidchartObjectId="B6PyXR6HBno2" id="DJfD9Ja-8CSdaUrpbYEk-26">
          <mxCell style="html=1;overflow=block;blockSpacing=1;whiteSpace=wrap;rounded=1;arcSize=50;whiteSpace=wrap;fontSize=16.7;fontColor=#333333;spacing=3.8;strokeColor=#333333;strokeOpacity=100;fillOpacity=100;fillColor=#e5e5e5;strokeWidth=1.5;" vertex="1" parent="1">
            <mxGeometry x="675" y="561" width="165" height="60" as="geometry" />
          </mxCell>
        </UserObject>
        <mxCell id="DJfD9Ja-8CSdaUrpbYEk-83" style="edgeStyle=orthogonalEdgeStyle;rounded=0;orthogonalLoop=1;jettySize=auto;html=1;exitX=0.5;exitY=1;exitDx=0;exitDy=0;entryX=0.5;entryY=0;entryDx=0;entryDy=0;" edge="1" parent="1" source="DJfD9Ja-8CSdaUrpbYEk-27" target="DJfD9Ja-8CSdaUrpbYEk-24">
          <mxGeometry relative="1" as="geometry" />
        </mxCell>
        <UserObject label="Dropout Layer" lucidchartObjectId="B6PyED_C5WVc" id="DJfD9Ja-8CSdaUrpbYEk-27">
          <mxCell style="html=1;overflow=block;blockSpacing=1;whiteSpace=wrap;rounded=1;arcSize=50;whiteSpace=wrap;fontSize=16.7;fontColor=#333333;spacing=3.8;strokeColor=#333333;strokeOpacity=100;fillOpacity=100;fillColor=#e5e5e5;strokeWidth=1.5;" vertex="1" parent="1">
            <mxGeometry x="675" y="158" width="165" height="38" as="geometry" />
          </mxCell>
        </UserObject>
        <mxCell id="DJfD9Ja-8CSdaUrpbYEk-86" style="edgeStyle=orthogonalEdgeStyle;rounded=0;orthogonalLoop=1;jettySize=auto;html=1;exitX=0.5;exitY=1;exitDx=0;exitDy=0;entryX=0.5;entryY=0;entryDx=0;entryDy=0;" edge="1" parent="1" source="DJfD9Ja-8CSdaUrpbYEk-28" target="DJfD9Ja-8CSdaUrpbYEk-29">
          <mxGeometry relative="1" as="geometry" />
        </mxCell>
        <UserObject label="Dropout Layer" lucidchartObjectId="B6PyM-yrs10p" id="DJfD9Ja-8CSdaUrpbYEk-28">
          <mxCell style="html=1;overflow=block;blockSpacing=1;whiteSpace=wrap;rounded=1;arcSize=50;whiteSpace=wrap;fontSize=16.7;fontColor=#333333;spacing=3.8;strokeColor=#333333;strokeOpacity=100;fillOpacity=100;fillColor=#e5e5e5;strokeWidth=1.5;" vertex="1" parent="1">
            <mxGeometry x="675" y="360" width="165" height="38" as="geometry" />
          </mxCell>
        </UserObject>
        <mxCell id="DJfD9Ja-8CSdaUrpbYEk-87" style="edgeStyle=orthogonalEdgeStyle;rounded=0;orthogonalLoop=1;jettySize=auto;html=1;exitX=0.5;exitY=1;exitDx=0;exitDy=0;entryX=0.5;entryY=0;entryDx=0;entryDy=0;" edge="1" parent="1" source="DJfD9Ja-8CSdaUrpbYEk-29" target="DJfD9Ja-8CSdaUrpbYEk-30">
          <mxGeometry relative="1" as="geometry" />
        </mxCell>
        <UserObject label="Conv2D Layer      (512, 3x3 filters)         " lucidchartObjectId="B6PyO1Msq0X5" id="DJfD9Ja-8CSdaUrpbYEk-29">
          <mxCell style="html=1;overflow=block;blockSpacing=1;whiteSpace=wrap;rounded=1;arcSize=50;whiteSpace=wrap;fontSize=16.7;fontColor=#333333;spacing=3.8;strokeColor=#333333;strokeOpacity=100;fillOpacity=100;fillColor=#e5e5e5;strokeWidth=1.5;" vertex="1" parent="1">
            <mxGeometry x="675" y="420" width="165" height="60" as="geometry" />
          </mxCell>
        </UserObject>
        <mxCell id="DJfD9Ja-8CSdaUrpbYEk-88" style="edgeStyle=orthogonalEdgeStyle;rounded=0;orthogonalLoop=1;jettySize=auto;html=1;exitX=0.5;exitY=1;exitDx=0;exitDy=0;entryX=0.5;entryY=0;entryDx=0;entryDy=0;" edge="1" parent="1" source="DJfD9Ja-8CSdaUrpbYEk-30" target="DJfD9Ja-8CSdaUrpbYEk-26">
          <mxGeometry relative="1" as="geometry" />
        </mxCell>
        <UserObject label="Batch Normalization" lucidchartObjectId="B6PyeyBqbc-Z" id="DJfD9Ja-8CSdaUrpbYEk-30">
          <mxCell style="html=1;overflow=block;blockSpacing=1;whiteSpace=wrap;rounded=1;arcSize=50;whiteSpace=wrap;fontSize=16.7;fontColor=#333333;spacing=3.8;strokeColor=#333333;strokeOpacity=100;fillOpacity=100;fillColor=#e5e5e5;strokeWidth=1.5;" vertex="1" parent="1">
            <mxGeometry x="679" y="502" width="165" height="38" as="geometry" />
          </mxCell>
        </UserObject>
        <UserObject label="probability distribution among n classes" lucidchartObjectId="46PyHdsDiIsM" id="DJfD9Ja-8CSdaUrpbYEk-31">
          <mxCell style="html=1;overflow=block;blockSpacing=1;whiteSpace=wrap;strokeColor=none;fillColor=none;whiteSpace=wrap;fontSize=16.7;fontColor=#333333;spacing=0;strokeWidth=1.5;" vertex="1" parent="1">
            <mxGeometry x="1035" y="539" width="180" height="45" as="geometry" />
          </mxCell>
        </UserObject>
        <mxCell id="DJfD9Ja-8CSdaUrpbYEk-89" style="edgeStyle=orthogonalEdgeStyle;rounded=0;orthogonalLoop=1;jettySize=auto;html=1;exitX=0.5;exitY=1;exitDx=0;exitDy=0;entryX=0.5;entryY=0;entryDx=0;entryDy=0;" edge="1" parent="1" source="DJfD9Ja-8CSdaUrpbYEk-32" target="DJfD9Ja-8CSdaUrpbYEk-33">
          <mxGeometry relative="1" as="geometry" />
        </mxCell>
        <UserObject label="Faltten Layer" lucidchartObjectId="46PykARX0P32" id="DJfD9Ja-8CSdaUrpbYEk-32">
          <mxCell style="html=1;overflow=block;blockSpacing=1;whiteSpace=wrap;rounded=1;arcSize=50;whiteSpace=wrap;fontSize=16.7;fontColor=#333333;spacing=3.8;strokeColor=#333333;strokeOpacity=100;fillOpacity=100;fillColor=#e5e5e5;strokeWidth=1.5;" vertex="1" parent="1">
            <mxGeometry x="1035" y="180" width="165" height="60" as="geometry" />
          </mxCell>
        </UserObject>
        <mxCell id="DJfD9Ja-8CSdaUrpbYEk-90" style="edgeStyle=orthogonalEdgeStyle;rounded=0;orthogonalLoop=1;jettySize=auto;html=1;exitX=0.5;exitY=1;exitDx=0;exitDy=0;entryX=0.5;entryY=0;entryDx=0;entryDy=0;" edge="1" parent="1" source="DJfD9Ja-8CSdaUrpbYEk-33" target="DJfD9Ja-8CSdaUrpbYEk-34">
          <mxGeometry relative="1" as="geometry" />
        </mxCell>
        <UserObject label="Dense Layer " lucidchartObjectId="46PyG2i6S9c_" id="DJfD9Ja-8CSdaUrpbYEk-33">
          <mxCell style="html=1;overflow=block;blockSpacing=1;whiteSpace=wrap;rounded=1;arcSize=50;whiteSpace=wrap;fontSize=16.7;fontColor=#333333;spacing=3.8;strokeColor=#333333;strokeOpacity=100;fillOpacity=100;fillColor=#e5e5e5;strokeWidth=1.5;" vertex="1" parent="1">
            <mxGeometry x="1035" y="268" width="165" height="47" as="geometry" />
          </mxCell>
        </UserObject>
        <mxCell id="DJfD9Ja-8CSdaUrpbYEk-91" style="edgeStyle=orthogonalEdgeStyle;rounded=0;orthogonalLoop=1;jettySize=auto;html=1;exitX=0.5;exitY=1;exitDx=0;exitDy=0;entryX=0.5;entryY=0;entryDx=0;entryDy=0;" edge="1" parent="1" source="DJfD9Ja-8CSdaUrpbYEk-34" target="DJfD9Ja-8CSdaUrpbYEk-35">
          <mxGeometry relative="1" as="geometry" />
        </mxCell>
        <UserObject label="Batch Normalization" lucidchartObjectId="46PyC0qRzglS" id="DJfD9Ja-8CSdaUrpbYEk-34">
          <mxCell style="html=1;overflow=block;blockSpacing=1;whiteSpace=wrap;rounded=1;arcSize=50;whiteSpace=wrap;fontSize=16.7;fontColor=#333333;spacing=3.8;strokeColor=#333333;strokeOpacity=100;fillOpacity=100;fillColor=#e5e5e5;strokeWidth=1.5;" vertex="1" parent="1">
            <mxGeometry x="1035" y="338" width="165" height="60" as="geometry" />
          </mxCell>
        </UserObject>
        <mxCell id="DJfD9Ja-8CSdaUrpbYEk-93" style="edgeStyle=orthogonalEdgeStyle;rounded=0;orthogonalLoop=1;jettySize=auto;html=1;exitX=0.5;exitY=1;exitDx=0;exitDy=0;entryX=0.5;entryY=0;entryDx=0;entryDy=0;" edge="1" parent="1" source="DJfD9Ja-8CSdaUrpbYEk-35" target="DJfD9Ja-8CSdaUrpbYEk-92">
          <mxGeometry relative="1" as="geometry" />
        </mxCell>
        <UserObject label="Dropout Layer" lucidchartObjectId="46Py1PbpLE._" id="DJfD9Ja-8CSdaUrpbYEk-35">
          <mxCell style="html=1;overflow=block;blockSpacing=1;whiteSpace=wrap;rounded=1;arcSize=50;whiteSpace=wrap;fontSize=16.7;fontColor=#333333;spacing=3.8;strokeColor=#333333;strokeOpacity=100;fillOpacity=100;fillColor=#e5e5e5;strokeWidth=1.5;" vertex="1" parent="1">
            <mxGeometry x="1035" y="420" width="165" height="37" as="geometry" />
          </mxCell>
        </UserObject>
        <UserObject label="Conv2D Layer      (512, 3x3 filters)         " lucidchartObjectId="46PyaKvx2smK" id="DJfD9Ja-8CSdaUrpbYEk-36">
          <mxCell style="html=1;overflow=block;blockSpacing=1;whiteSpace=wrap;rounded=1;arcSize=50;whiteSpace=wrap;fontSize=16.7;fontColor=#333333;spacing=3.8;strokeColor=#333333;strokeOpacity=100;fillOpacity=100;fillColor=#e5e5e5;strokeWidth=1.5;" vertex="1" parent="1">
            <mxGeometry x="855" width="165" height="60" as="geometry" />
          </mxCell>
        </UserObject>
        <UserObject label="Batch Normalization" lucidchartObjectId="46PyWyhUWmJY" id="DJfD9Ja-8CSdaUrpbYEk-37">
          <mxCell style="html=1;overflow=block;blockSpacing=1;whiteSpace=wrap;rounded=1;arcSize=50;whiteSpace=wrap;fontSize=16.7;fontColor=#333333;spacing=3.8;strokeColor=#333333;strokeOpacity=100;fillOpacity=100;fillColor=#e5e5e5;strokeWidth=1.5;" vertex="1" parent="1">
            <mxGeometry x="855" y="83" width="165" height="38" as="geometry" />
          </mxCell>
        </UserObject>
        <UserObject label="Conv2D Layer      (512, 3x3 filters)         " lucidchartObjectId="46PyiZrTgx9A" id="DJfD9Ja-8CSdaUrpbYEk-38">
          <mxCell style="html=1;overflow=block;blockSpacing=1;whiteSpace=wrap;rounded=1;arcSize=50;whiteSpace=wrap;fontSize=16.7;fontColor=#333333;spacing=3.8;strokeColor=#333333;strokeOpacity=100;fillOpacity=100;fillColor=#e5e5e5;strokeWidth=1.5;" vertex="1" parent="1">
            <mxGeometry x="855" y="203" width="165" height="60" as="geometry" />
          </mxCell>
        </UserObject>
        <UserObject label="Batch Normalization" lucidchartObjectId="46PyQJN_uHZK" id="DJfD9Ja-8CSdaUrpbYEk-39">
          <mxCell style="html=1;overflow=block;blockSpacing=1;whiteSpace=wrap;rounded=1;arcSize=50;whiteSpace=wrap;fontSize=16.7;fontColor=#333333;spacing=3.8;strokeColor=#333333;strokeOpacity=100;fillOpacity=100;fillColor=#e5e5e5;strokeWidth=1.5;" vertex="1" parent="1">
            <mxGeometry x="855" y="285" width="165" height="38" as="geometry" />
          </mxCell>
        </UserObject>
        <mxCell id="DJfD9Ja-8CSdaUrpbYEk-96" style="edgeStyle=orthogonalEdgeStyle;rounded=0;orthogonalLoop=1;jettySize=auto;html=1;entryX=0.5;entryY=0;entryDx=0;entryDy=0;" edge="1" parent="1" source="DJfD9Ja-8CSdaUrpbYEk-40" target="DJfD9Ja-8CSdaUrpbYEk-32">
          <mxGeometry relative="1" as="geometry">
            <Array as="points">
              <mxPoint x="938" y="620" />
              <mxPoint x="1030" y="620" />
              <mxPoint x="1030" y="160" />
              <mxPoint x="1118" y="160" />
            </Array>
          </mxGeometry>
        </mxCell>
        <UserObject label="MaxPooling      (pool size = 2x2)" lucidchartObjectId="46PyeTGIf3vz" id="DJfD9Ja-8CSdaUrpbYEk-40">
          <mxCell style="html=1;overflow=block;blockSpacing=1;whiteSpace=wrap;rounded=1;arcSize=50;whiteSpace=wrap;fontSize=16.7;fontColor=#333333;spacing=3.8;strokeColor=#333333;strokeOpacity=100;fillOpacity=100;fillColor=#e5e5e5;strokeWidth=1.5;" vertex="1" parent="1">
            <mxGeometry x="855" y="546" width="165" height="60" as="geometry" />
          </mxCell>
        </UserObject>
        <UserObject label="Dropout Layer" lucidchartObjectId="46Py2J44BnXv" id="DJfD9Ja-8CSdaUrpbYEk-41">
          <mxCell style="html=1;overflow=block;blockSpacing=1;whiteSpace=wrap;rounded=1;arcSize=50;whiteSpace=wrap;fontSize=16.7;fontColor=#333333;spacing=3.8;strokeColor=#333333;strokeOpacity=100;fillOpacity=100;fillColor=#e5e5e5;strokeWidth=1.5;" vertex="1" parent="1">
            <mxGeometry x="855" y="143" width="165" height="38" as="geometry" />
          </mxCell>
        </UserObject>
        <UserObject label="Dropout Layer" lucidchartObjectId="46PyqLLFc.Ke" id="DJfD9Ja-8CSdaUrpbYEk-42">
          <mxCell style="html=1;overflow=block;blockSpacing=1;whiteSpace=wrap;rounded=1;arcSize=50;whiteSpace=wrap;fontSize=16.7;fontColor=#333333;spacing=3.8;strokeColor=#333333;strokeOpacity=100;fillOpacity=100;fillColor=#e5e5e5;strokeWidth=1.5;" vertex="1" parent="1">
            <mxGeometry x="855" y="345" width="165" height="38" as="geometry" />
          </mxCell>
        </UserObject>
        <UserObject label="Conv2D Layer      (512, 3x3 filters)         " lucidchartObjectId="46PyF5s.xgfl" id="DJfD9Ja-8CSdaUrpbYEk-43">
          <mxCell style="html=1;overflow=block;blockSpacing=1;whiteSpace=wrap;rounded=1;arcSize=50;whiteSpace=wrap;fontSize=16.7;fontColor=#333333;spacing=3.8;strokeColor=#333333;strokeOpacity=100;fillOpacity=100;fillColor=#e5e5e5;strokeWidth=1.5;" vertex="1" parent="1">
            <mxGeometry x="855" y="405" width="165" height="60" as="geometry" />
          </mxCell>
        </UserObject>
        <UserObject label="Batch Normalization" lucidchartObjectId="46Py42~lRgiN" id="DJfD9Ja-8CSdaUrpbYEk-44">
          <mxCell style="html=1;overflow=block;blockSpacing=1;whiteSpace=wrap;rounded=1;arcSize=50;whiteSpace=wrap;fontSize=16.7;fontColor=#333333;spacing=3.8;strokeColor=#333333;strokeOpacity=100;fillOpacity=100;fillColor=#e5e5e5;strokeWidth=1.5;" vertex="1" parent="1">
            <mxGeometry x="859" y="487" width="165" height="38" as="geometry" />
          </mxCell>
        </UserObject>
        <UserObject label="" lucidchartObjectId="46PyGp54d9gP" id="DJfD9Ja-8CSdaUrpbYEk-45">
          <mxCell style="html=1;jettySize=18;whiteSpace=wrap;fontSize=13;strokeColor=#5E5E5E;strokeWidth=1.5;rounded=1;arcSize=12;edgeStyle=orthogonalEdgeStyle;startArrow=none;;endArrow=block;endFill=1;;exitX=0.5;exitY=1.012;exitPerimeter=0;entryX=0.5;entryY=-0.02;entryPerimeter=0;" edge="1" parent="1" source="DJfD9Ja-8CSdaUrpbYEk-36" target="DJfD9Ja-8CSdaUrpbYEk-37">
            <mxGeometry width="100" height="100" relative="1" as="geometry">
              <Array as="points" />
            </mxGeometry>
          </mxCell>
        </UserObject>
        <UserObject label="" lucidchartObjectId="46PyDkhmHyz1" id="DJfD9Ja-8CSdaUrpbYEk-46">
          <mxCell style="html=1;jettySize=18;whiteSpace=wrap;fontSize=13;strokeColor=#5E5E5E;strokeWidth=1.5;rounded=1;arcSize=12;edgeStyle=orthogonalEdgeStyle;startArrow=none;;endArrow=block;endFill=1;;exitX=0.5;exitY=1.02;exitPerimeter=0;entryX=0.5;entryY=-0.02;entryPerimeter=0;" edge="1" parent="1" source="DJfD9Ja-8CSdaUrpbYEk-37" target="DJfD9Ja-8CSdaUrpbYEk-41">
            <mxGeometry width="100" height="100" relative="1" as="geometry">
              <Array as="points" />
            </mxGeometry>
          </mxCell>
        </UserObject>
        <UserObject label="" lucidchartObjectId="46Pygmzdm9tg" id="DJfD9Ja-8CSdaUrpbYEk-47">
          <mxCell style="html=1;jettySize=18;whiteSpace=wrap;fontSize=13;strokeColor=#5E5E5E;strokeWidth=1.5;rounded=1;arcSize=12;edgeStyle=orthogonalEdgeStyle;startArrow=none;;endArrow=block;endFill=1;;exitX=0.5;exitY=1.02;exitPerimeter=0;entryX=0.5;entryY=-0.012;entryPerimeter=0;" edge="1" parent="1" source="DJfD9Ja-8CSdaUrpbYEk-41" target="DJfD9Ja-8CSdaUrpbYEk-38">
            <mxGeometry width="100" height="100" relative="1" as="geometry">
              <Array as="points" />
            </mxGeometry>
          </mxCell>
        </UserObject>
        <UserObject label="" lucidchartObjectId="46PyJuayobSO" id="DJfD9Ja-8CSdaUrpbYEk-48">
          <mxCell style="html=1;jettySize=18;whiteSpace=wrap;fontSize=13;strokeColor=#5E5E5E;strokeWidth=1.5;rounded=1;arcSize=12;edgeStyle=orthogonalEdgeStyle;startArrow=none;;endArrow=block;endFill=1;;exitX=0.5;exitY=1.012;exitPerimeter=0;entryX=0.5;entryY=-0.02;entryPerimeter=0;" edge="1" parent="1" source="DJfD9Ja-8CSdaUrpbYEk-38" target="DJfD9Ja-8CSdaUrpbYEk-39">
            <mxGeometry width="100" height="100" relative="1" as="geometry">
              <Array as="points" />
            </mxGeometry>
          </mxCell>
        </UserObject>
        <UserObject label="" lucidchartObjectId="46PyB_u9-VWc" id="DJfD9Ja-8CSdaUrpbYEk-49">
          <mxCell style="html=1;jettySize=18;whiteSpace=wrap;fontSize=13;strokeColor=#5E5E5E;strokeWidth=1.5;rounded=1;arcSize=12;edgeStyle=orthogonalEdgeStyle;startArrow=none;;endArrow=block;endFill=1;;exitX=0.5;exitY=1.02;exitPerimeter=0;entryX=0.5;entryY=-0.02;entryPerimeter=0;" edge="1" parent="1" source="DJfD9Ja-8CSdaUrpbYEk-39" target="DJfD9Ja-8CSdaUrpbYEk-42">
            <mxGeometry width="100" height="100" relative="1" as="geometry">
              <Array as="points" />
            </mxGeometry>
          </mxCell>
        </UserObject>
        <UserObject label="" lucidchartObjectId="46PyUj0k9ktG" id="DJfD9Ja-8CSdaUrpbYEk-50">
          <mxCell style="html=1;jettySize=18;whiteSpace=wrap;fontSize=13;strokeColor=#5E5E5E;strokeWidth=1.5;rounded=1;arcSize=12;edgeStyle=orthogonalEdgeStyle;startArrow=none;;endArrow=block;endFill=1;;exitX=0.5;exitY=1.02;exitPerimeter=0;entryX=0.5;entryY=-0.012;entryPerimeter=0;" edge="1" parent="1" source="DJfD9Ja-8CSdaUrpbYEk-42" target="DJfD9Ja-8CSdaUrpbYEk-43">
            <mxGeometry width="100" height="100" relative="1" as="geometry">
              <Array as="points" />
            </mxGeometry>
          </mxCell>
        </UserObject>
        <UserObject label="" lucidchartObjectId="46Py1bGcko8D" id="DJfD9Ja-8CSdaUrpbYEk-51">
          <mxCell style="html=1;jettySize=18;whiteSpace=wrap;fontSize=13;strokeColor=#5E5E5E;strokeWidth=1.5;rounded=1;arcSize=12;edgeStyle=orthogonalEdgeStyle;startArrow=none;;endArrow=block;endFill=1;;exitX=0.5;exitY=1.012;exitPerimeter=0;entryX=0.475;entryY=-0.02;entryPerimeter=0;" edge="1" parent="1" source="DJfD9Ja-8CSdaUrpbYEk-43" target="DJfD9Ja-8CSdaUrpbYEk-44">
            <mxGeometry width="100" height="100" relative="1" as="geometry">
              <Array as="points" />
            </mxGeometry>
          </mxCell>
        </UserObject>
        <UserObject label="" lucidchartObjectId="46PybLf2J1g-" id="DJfD9Ja-8CSdaUrpbYEk-52">
          <mxCell style="html=1;jettySize=18;whiteSpace=wrap;fontSize=13;strokeColor=#5E5E5E;strokeWidth=1.5;rounded=1;arcSize=12;edgeStyle=orthogonalEdgeStyle;startArrow=none;;endArrow=block;endFill=1;;exitX=0.5;exitY=1.02;exitPerimeter=0;entryX=0.525;entryY=-0.013;entryPerimeter=0;" edge="1" parent="1" source="DJfD9Ja-8CSdaUrpbYEk-44" target="DJfD9Ja-8CSdaUrpbYEk-40">
            <mxGeometry width="100" height="100" relative="1" as="geometry">
              <Array as="points" />
            </mxGeometry>
          </mxCell>
        </UserObject>
        <UserObject label="" lucidchartObjectId="37Pys7V.wSeU" id="DJfD9Ja-8CSdaUrpbYEk-59">
          <mxCell style="html=1;jettySize=18;whiteSpace=wrap;fontSize=13;strokeColor=#5E5E5E;strokeWidth=1.5;rounded=1;arcSize=12;edgeStyle=orthogonalEdgeStyle;startArrow=none;;endArrow=block;endFill=1;;exitX=0.5;exitY=1.012;exitPerimeter=0;entryX=0.5;entryY=-0.02;entryPerimeter=0;" edge="1" parent="1" source="DJfD9Ja-8CSdaUrpbYEk-22" target="DJfD9Ja-8CSdaUrpbYEk-23">
            <mxGeometry width="100" height="100" relative="1" as="geometry">
              <Array as="points" />
            </mxGeometry>
          </mxCell>
        </UserObject>
        <mxCell id="DJfD9Ja-8CSdaUrpbYEk-95" style="edgeStyle=orthogonalEdgeStyle;rounded=0;orthogonalLoop=1;jettySize=auto;html=1;exitX=0.5;exitY=1;exitDx=0;exitDy=0;entryX=0.461;entryY=0;entryDx=0;entryDy=0;entryPerimeter=0;" edge="1" parent="1" source="DJfD9Ja-8CSdaUrpbYEk-92" target="DJfD9Ja-8CSdaUrpbYEk-31">
          <mxGeometry relative="1" as="geometry" />
        </mxCell>
        <UserObject label="Dense Layer" lucidchartObjectId="46Py1PbpLE._" id="DJfD9Ja-8CSdaUrpbYEk-92">
          <mxCell style="html=1;overflow=block;blockSpacing=1;whiteSpace=wrap;rounded=1;arcSize=50;whiteSpace=wrap;fontSize=16.7;fontColor=#333333;spacing=3.8;strokeColor=#333333;strokeOpacity=100;fillOpacity=100;fillColor=#e5e5e5;strokeWidth=1.5;" vertex="1" parent="1">
            <mxGeometry x="1035" y="479" width="165" height="37" as="geometry" />
          </mxCell>
        </UserObject>
      </root>
    </mxGraphModel>
  </diagram>
</mxfile>
